<?xml version="1.0" standalone="no"?>
<!DOCTYPE svg PUBLIC "-//W3C//DTD SVG 1.1//EN" "http://www.w3.org/Graphics/SVG/1.1/DTD/svg11.dtd" >
<!--
2013-9-30: Created.
-->
<svg>
<metadata>
Created by iconfont
</metadata>
<defs>

<font id="iconfont" horiz-adv-x="1024" >
  <font-face
    font-family="iconfont"
    font-weight="500"
    font-stretch="normal"
    units-per-em="1024"
    ascent="896"
    descent="-128"
  />
    <missing-glyph />
    
    <glyph glyph-name="jubao" unicode="&#58904;" d="M576 519.314286c-3.657143-10.971429-3.657143-25.6 0-36.571429 3.657143-18.285714 18.285714-208.457143 21.942857-234.057143 3.657143-18.285714 10.971429-65.828571 36.571429-62.171429 10.971429 0 18.285714 14.628571 21.942857 25.6 7.314286 21.942857 21.942857 259.657143 21.942857 285.257143 0 14.628571 0 25.6-10.971429 36.571429-10.971429 7.314286-21.942857 14.628571-32.914286 18.285714C612.571429 552.228571 583.314286 541.257143 576 519.314286zM579.657143 91.428571c0-25.6 21.942857-47.542857 47.542857-47.542857 25.6 0 47.542857 21.942857 47.542857 47.542857l0 0c0 25.6-21.942857 47.542857-47.542857 47.542857C601.6 135.314286 579.657143 117.028571 579.657143 91.428571zM1205.028571-128 42.057143-128c-14.628571 0-29.257143 7.314286-36.571429 21.942857-7.314286 14.628571-7.314286 29.257143 0 40.228571L583.314286 877.714286c7.314286 10.971429 21.942857 18.285714 36.571429 18.285714 0 0 0 0 0 0 14.628571 0 29.257143-7.314286 36.571429-18.285714l581.485714-939.885714c7.314286-10.971429 7.314286-29.257143 0-40.228571C1234.285714-120.685714 1219.657143-128 1205.028571-128zM118.857143-47.542857l1013.028571 0L619.885714 775.314286 118.857143-47.542857z"  horiz-adv-x="1246" />

    
    <glyph glyph-name="nanxing" unicode="&#58895;" d="M972.30848 848.9984c-13.08672 12.61568-30.50496 19.32288-48.56832 19.44576H635.12576a70.43072 70.43072 0 1 1 0-140.8512h118.55872L562.65728 536.55552a344.14592 344.14592 0 0 1-186.86976 54.8864c-95.50848 0-182.00576-38.72768-244.59264-101.33504-62.60736-62.59712-101.33504-149.0944-101.33504-244.61312s38.71744-182.016 101.33504-244.62336c62.57664-62.59712 149.08416-101.3248 244.59264-101.3248 95.52896 0 182.02624 38.71744 244.62336 101.3248 62.6176 62.59712 101.3248 149.08416 101.3248 244.62336a344.20736 344.20736 0 0 1-58.46016 192.4608L853.2992 627.98848v-118.55872a70.43072 70.43072 0 1 1 140.84096 0V798.02368c-0.31744 0.34816 2.304 27.42272-21.83168 50.97472z m-451.4816-748.52352a204.56448 204.56448 0 0 0-145.03936-60.03712 204.52352 204.52352 0 0 0-145.00864 60.03712 204.544 204.544 0 0 0-60.06784 145.01888 204.46208 204.46208 0 0 0 60.06784 145.00864A204.41088 204.41088 0 0 0 375.78752 450.56c56.65792 0 107.9296-22.94784 145.03936-60.0576a204.43136 204.43136 0 0 0 60.02688-145.00864 204.46208 204.46208 0 0 0-60.02688-145.01888z"  horiz-adv-x="1024" />

    
    <glyph glyph-name="yaoqing" unicode="&#58883;" d="M995.641048 444.455131l-59.795621 57.157578-23.522542 21.983684V818.617432a31.876342 31.876342 0 0 1-31.876341 31.876342H571.355947L531.125805 890.064405a21.983684 21.983684 0 0 1-29.2383 0l-41.988836-39.570631H143.33362a31.876342 31.876342 0 0 1-31.876342-31.656505v-293.482181a185.76213 185.76213 0 0 0-13.190211-15.168742l-65.951052-62.213826A33.854873 33.854873 0 0 1 21.763847 423.570631v-479.244311a72.985831 72.985831 0 0 1 72.32632-72.32632h835.379992a72.765994 72.765994 0 0 1 72.765994 69.908115V429.066552a21.983684 21.983684 0 0 1-6.595105 15.388579zM153.665951 797.293259a10.991842 10.991842 0 0 0 10.991842 10.991842h694.464577a10.991842 10.991842 0 0 0 10.991842-10.991842v-405.159296a10.991842 10.991842 0 0 0-10.991842-10.991842H164.87763a10.991842 10.991842 0 0 0-10.991842 10.991842z m806.141692-842.634607a39.790468 39.790468 0 0 0-39.790468-39.790468H103.982825a39.790468 39.790468 0 0 0-39.790468 39.790468V280.456848l423.405754-247.756118a48.364105 48.364105 0 0 1 48.803778 0L959.807643 280.456848z m0 373.722628L536.401889 82.603693a48.364105 48.364105 0 0 0-48.803778 0L64.192357 328.601116V414.557321a12.5307 12.5307 0 0 0 3.957063 9.233147l43.967368 40.889652v-94.090167a31.876342 31.876342 0 0 1 31.876342-31.876342h736.67325a31.876342 31.876342 0 0 1 31.876342 31.876342v93.87033l43.967368-40.669815a12.5307 12.5307 0 0 0 3.957063-9.233147zM284.249034 588.228424A21.983684 21.983684 0 0 1 307.551739 588.228424a517.715758 517.715758 0 0 1 49.683126 41.549163 128.384714 128.384714 0 0 1 19.785315 25.0614 73.205668 73.205668 0 0 1 6.814942 45.726062 58.036926 58.036926 0 0 1-29.458136 41.109489 54.299699 54.299699 0 0 1-59.355947-5.276084A49.463289 49.463289 0 0 1 263.584371 748.049807a58.256763 58.256763 0 0 1-38.471447-16.487763 63.532847 63.532847 0 0 1-10.552168-74.964363c12.5307-28.358952 60.235294-62.433663 69.688278-68.369257z m-29.677973 113.43581a16.048089 16.048089 0 0 0 9.01331 3.737226c3.737226 0 9.01331-5.495921 14.069558-14.289395a20.224989 20.224989 0 0 1 19.345642-10.991842 21.983684 21.983684 0 0 1 18.466294 12.5307c0 1.538858 7.034779 12.310863 13.629884 12.310863a15.168742 15.168742 0 0 0 6.595105-1.978531 16.487763 16.487763 0 0 0 7.034779-9.233148 30.996994 30.996994 0 0 0-2.418205-20.224989 101.784457 101.784457 0 0 0-11.431516-13.849721c-9.233147-8.793474-21.983684-20.224989-32.096178-28.139115a177.40833 177.40833 0 0 0-43.967368 43.967368 21.983684 21.983684 0 0 0 1.758695 26.160584zM551.570631 682.758265h231.488193a21.983684 21.983684 0 0 1 0 42.42851H551.570631a21.983684 21.983684 0 1 1 0-42.42851zM783.058824 505.349936h-163.118936a21.983684 21.983684 0 1 1 0-42.42851h162.899099a21.983684 21.983684 0 1 1 0 42.42851zM441.652211 573.279519h341.406613a21.983684 21.983684 0 0 1 0 42.42851H441.652211a21.983684 21.983684 0 0 1 0-42.42851z"  horiz-adv-x="1024" />

    
    <glyph glyph-name="lizhi" unicode="&#59052;" d="M839.584598 12.712083l61.397373 0.23546c16.645645 0 30.14099 13.13099 30.14099 30.547972s-13.495345 31.53853-30.145049 31.53853l-183.652185 0.289251c-16.642601 0-30.13896-14.117488-30.138961-31.53853 0-17.416982 13.49636-31.53853 30.138961-31.53853l122.258871 0.465847zM702.739347 204.452137c0.203998-0.159342 0.418146 4.257575 0.624173 4.097218v-4.332678a42.365659 42.365659 0 0 1 14.853303-2.674305c22.560579 0 40.84227 12.404309 40.84227 33.965195l-0.368415 3.613103c0 8.712043-2.988929 16.761346-8.034079 23.252752l0.428295 0.498324a212.108414 212.108414 0 0 1-2.210488 1.616762c-4.121576 4.605691-9.344336 8.283748-15.283627 10.663727a414.072737 414.072737 0 0 1-71.609464 38.032981c75.322028 49.322912 124.751506 132.127919 124.751506 225.976233 0 151.181961-128.253983 273.745307-286.450032 273.745308-158.202139 0-286.454092-122.563346-286.454092-273.745308 0-93.882821 49.46297-176.713201 124.82864-226.032053-128.896425-53.055775-223.543478-167.621579-243.491662-305.020974a37.409822 37.409822 0 0 1-2.290666-12.888425l0.309549-3.033585-0.011164-0.119761h0.025373l0.049731-0.47904c0-21.550737 15.243031-36.493352 37.802595-36.493353 22.553474 0 41.352773 20.012123 41.352772 41.567935l-0.049731 0.479041h0.733785c19.031714 149.059771 150.385252 265.707169 309.363802 273.884351 5.89971-0.344057 11.835956-0.537906 17.830053-0.537906 6.002216 0 11.954701 0.193849 17.86253 0.542981 62.413305-3.203076 120.170173-23.142126 168.46599-55.182025 4.267724-4.97918 9.800034-8.921116 16.121948-11.400557v0.005074h0.007105z m-202.526587 122.355289c-122.674987 0-222.127669 95.04287-222.12767 212.281964 0 117.230975 99.452682 212.27283 222.12767 212.27283 122.678032 0 222.124625-95.04287 222.124624-212.27283 0-117.239094-99.446593-212.281964-222.124624-212.281964z m0 16.745107"  horiz-adv-x="1024" />

    
    <glyph glyph-name="zhexian" unicode="&#58902;" d="M954.514286 36.571428999999966c-5.485714 14.628571-20.114286 23.771429-36.571429 23.771428H151.771429v694.857143c0 23.771429-23.771429 42.057143-49.371429 34.742857-14.628571-3.657143-23.771429-20.114286-23.771429-36.571428v-729.6c0-20.114286 16.457143-36.571429 36.571429-36.571429h804.571429c23.771429 0 43.885714 23.771429 34.742857 49.371429zM250.514286 153.60000000000002c7.314286-5.485714 14.628571-7.314286 21.942857-7.314286 10.971429 0 21.942857 5.485714 29.257143 14.628572l153.6 192 113.371428-96.914286c7.314286-7.314286 18.285714-9.142857 27.428572-9.142857 9.142857 1.828571 18.285714 5.485714 25.6 14.628571l232.228571 303.542857c12.8 16.457143 9.142857 38.4-7.314286 51.2-16.457143 12.8-38.4 9.142857-51.2-7.314285L585.142857 336.457143l-111.542857 96.914286c-7.314286 7.314286-16.457143 9.142857-27.428571 9.142857-9.142857-1.828571-18.285714-5.485714-25.6-12.8l-177.371429-223.085715c-10.971429-18.285714-9.142857-40.228571 7.314286-53.028571z"  horiz-adv-x="1024" />

    
    <glyph glyph-name="xinzi" unicode="&#58885;" d="M679 612.66L556.77 404.719h96.31v-45.947H540.865v-63.325H653.08v-46.537H540.864v-92.188h-57.729V248.91H366.793v46.537h116.341v63.325h-116.34V404.72h99.257l-121.052 207.94h65.091C466.64 509.375 501 443.893 513.177 416.208h1.178c4.124 11.385 15.413 34.36 33.873 68.92l69.215 127.533H679zM541.376 156.211h-58.753V248.4H366.282v47.56h116.34v62.302h-116.34v46.97h98.879l-121.052 207.94h66.284l0.146-0.267c56.07-102.408 90.712-168.41 102.972-196.188h0.487c4.218 11.487 15.58 34.578 33.778 68.65l69.362 127.803h62.756l-0.453-0.77-121.777-207.17h95.928v-46.97H541.376v-62.301h112.216v-47.56H541.376v-92.188z m-57.73 1.023h56.706v92.189H652.57v45.514H540.352v64.348H652.57v44.923h-96.694l0.453 0.77 121.778 207.17h-60.358l-69.07-127.265c-18.354-34.363-29.74-57.529-33.84-68.851l-0.123-0.338h-1.87l-0.135 0.306c-12.118 27.548-46.745 93.54-102.922 196.148h-63.899l121.053-207.94h-99.636v-44.924h116.34v-64.348H367.306v-45.514h116.34v-92.188zM960.457 384.692c0-247.676-200.782-448.458-448.458-448.458-247.676 0-448.457 200.782-448.457 448.458 0 247.677 200.78 448.458 448.457 448.458 247.676 0 448.458-200.782 448.458-448.458zM512 768.684c-212.073 0-383.992-171.92-383.992-383.992s171.92-383.993 383.992-383.993 383.993 171.92 383.993 383.993S724.072 768.684 512 768.684zM512-64.278c-60.61 0-119.408 11.872-174.76 35.283-53.462 22.613-101.478 54.984-142.709 96.216-41.232 41.233-73.605 89.248-96.217 142.71C74.9 265.284 63.03 324.082 63.03 384.692c0 60.611 11.871 119.408 35.283 174.76 22.613 53.464 54.985 101.478 96.217 142.71 41.232 41.231 89.247 73.605 142.71 96.217 55.35 23.41 114.148 35.282 174.758 35.282 60.61 0 119.408-11.871 174.76-35.282 53.462-22.613 101.477-54.986 142.71-96.218 41.232-41.232 73.604-89.246 96.216-142.709 23.413-55.352 35.283-114.149 35.283-174.76 0-60.609-11.871-119.407-35.283-174.758-22.613-53.463-54.984-101.478-96.216-142.71-41.233-41.233-89.248-73.605-142.71-96.217-55.351-23.413-114.15-35.284-174.759-35.284z m0 896.916C265 832.638 64.052 631.69 64.052 384.692S265.001-63.254 512-63.254s447.947 200.947 447.947 447.946S758.998 832.638 511.999 832.638z m0-832.45c-51.908 0-102.264 10.166-149.667 30.216-45.787 19.366-86.908 47.09-122.22 82.401s-63.037 76.432-82.402 122.22c-20.05 47.404-30.216 97.759-30.216 149.667 0 51.907 10.167 102.263 30.216 149.666 19.367 45.787 47.09 86.908 82.402 122.22s76.433 63.037 122.22 82.402c47.403 20.05 97.76 30.216 149.666 30.216 51.909 0 102.264-10.167 149.667-30.216 45.787-19.366 86.908-47.09 122.22-82.402s63.036-76.433 82.402-122.22c20.05-47.403 30.216-97.759 30.216-149.666 0-51.908-10.167-102.263-30.216-149.667-19.367-45.787-47.091-86.907-82.402-122.22s-76.432-63.036-122.22-82.401c-47.404-20.051-97.76-30.216-149.667-30.216z m0 767.985c-211.452 0-383.481-172.03-383.481-383.481 0-211.452 172.029-383.481 383.48-383.481 211.452 0 383.481 172.029 383.481 383.48 0 211.453-172.029 383.482-383.48 383.482z"  horiz-adv-x="1024" />

    
    <glyph glyph-name="zhiwei1" unicode="&#58669;" d="M838.144 44.03200000000004H187.392c-57.344 0-104.448 46.592-104.448 104.448V619.52c0 57.344 46.592 104.448 104.448 104.448h650.752c57.344 0 104.448-46.592 104.448-104.448v-471.04c0-57.344-47.104-104.448-104.448-104.448zM187.392 681.984c-34.304 0-62.464-28.16-62.464-62.464v-471.04c0-34.304 28.16-62.464 62.464-62.464h650.752c34.304 0 62.464 28.16 62.464 62.464V619.52c0 34.304-28.16 62.464-62.464 62.464H187.392zM375.296 337.408c-68.096 0-123.904 55.296-123.904 123.904 0 68.096 55.296 123.904 123.904 123.904 68.096 0 123.904-55.296 123.904-123.904-0.512-68.096-55.808-123.904-123.904-123.904z m0 206.336c-45.056 0-81.92-36.864-81.92-81.92s36.864-81.92 81.92-81.92c45.056 0 81.92 36.864 81.92 81.92s-36.864 81.92-81.92 81.92zM530.432 182.27200000000005c-11.264 0-20.992 9.216-20.992 20.992 0 74.24-60.416 134.144-134.144 134.144-74.24 0-134.144-60.416-134.144-134.144 0-11.264-9.216-20.992-20.992-20.992-11.264 0-20.992 9.216-20.992 20.992 0 97.28 78.848 176.128 176.128 176.128 97.28 0 176.128-78.848 176.128-176.128-0.512-11.264-9.728-20.992-20.992-20.992zM809.984 496.64h-225.28c-11.264 0-20.992 9.216-20.992 20.992 0 11.264 9.216 20.992 20.992 20.992h225.28c11.264 0 20.992-9.216 20.992-20.992-0.512-11.776-9.728-20.992-20.992-20.992zM809.984 371.712H605.696c-11.264 0-20.992 9.216-20.992 20.992 0 11.264 9.216 20.992 20.992 20.992h204.288c11.264 0 20.992-9.216 20.992-20.992-0.512-11.776-9.728-20.992-20.992-20.992zM809.984 246.27200000000005H626.688c-11.264 0-20.992 9.216-20.992 20.992s9.216 20.992 20.992 20.992h183.296c11.264 0 20.992-9.216 20.992-20.992s-9.728-20.992-20.992-20.992z"  horiz-adv-x="1024" />

    
    <glyph glyph-name="hangye-" unicode="&#60001;" d="M512 839.111111a455.111111 455.111111 0 1 1 455.111111-455.111111 455.111111 455.111111 0 0 1-455.111111 455.111111z m0-227.555555a505.742222 505.742222 0 0 0-87.608889 7.395555C451.128889 725.333333 490.951111 782.222222 512 782.222222s60.871111-56.888889 87.608889-163.271111A515.982222 515.982222 0 0 0 512 611.555556z m142.791111 20.48a498.346667 498.346667 0 0 1-54.044444 139.377777 398.222222 398.222222 0 0 0 170.666666-87.608889 482.417778 482.417778 0 0 0-116.622222-51.768888z m-284.444444 0a485.262222 485.262222 0 0 0-117.76 52.337777 398.222222 398.222222 0 0 0 170.666666 87.608889 499.484444 499.484444 0 0 1-54.044444-139.946666zM682.666667 412.444444a1095.68 1095.68 0 0 1-15.928889 163.84 538.168889 538.168889 0 0 1 146.773333 67.128889A398.222222 398.222222 0 0 0 910.222222 412.444444z m-568.888889 0a398.222222 398.222222 0 0 0 96.142222 230.968889 537.6 537.6 0 0 1 147.342222-67.128889A1098.524444 1098.524444 0 0 1 341.333333 412.444444z m284.444444 0a1028.551111 1028.551111 0 0 0 14.222222 151.324445A568.888889 568.888889 0 0 1 512 554.666667a568.888889 568.888889 0 0 1 98.986667 8.533333A1042.773333 1042.773333 0 0 0 625.777778 412.444444z m414.72-287.857777a537.6 537.6 0 0 1-147.342222 67.128889A1098.524444 1098.524444 0 0 1 682.666667 355.555556h227.555555a398.222222 398.222222 0 0 0-96.711111-230.968889z m-398.222222 79.644444A1042.773333 1042.773333 0 0 0 398.222222 355.555556h227.555556a1014.897778 1014.897778 0 0 0-14.222222-150.755556 563.2 563.2 0 0 1-197.973334 0z m-204.231111-79.644444A398.222222 398.222222 0 0 0 113.777778 355.555556h227.555555a1098.524444 1098.524444 0 0 1 15.928889-163.84 537.6 537.6 0 0 1-146.773333-67.128889zM512-14.222222c-21.048889 0-60.871111 56.888889-87.608889 163.271111a506.88 506.88 0 0 0 175.217778 0C572.871111 42.666667 533.048889-14.222222 512-14.222222z m88.746667 10.24a498.346667 498.346667 0 0 1 54.044444 139.377778 484.124444 484.124444 0 0 0 117.76-51.768889 398.222222 398.222222 0 0 0-171.804444-87.608889z m-178.062223 0a398.222222 398.222222 0 0 0-170.666666 87.608889 478.435556 478.435556 0 0 0 117.76 52.337777 502.328889 502.328889 0 0 1 53.475555-139.946666z"  horiz-adv-x="1024" />

    
    <glyph glyph-name="youxiang" unicode="&#58887;" d="M834.446 682.553H194.105c-50.176 0-91.022-40.846-91.022-91.022v-423.026c0-50.176 40.846-91.022 91.022-91.022h640.341c50.176 0 91.022 40.846 91.022 91.022V591.531c0 50.176-40.846 91.022-91.022 91.022z m36.409-514.048c0-20.025-16.384-36.409-36.409-36.409H194.105c-20.025 0-36.409 16.384-36.409 36.409V591.531c0 20.025 16.384 36.409 36.409 36.409h640.341c20.025 0 36.409-16.384 36.409-36.409v-423.026zM786.773 537.941L514.275 366.023 241.777 537.941c-12.743 8.078-29.582 4.21-37.661-8.533-8.078-12.743-4.21-29.582 8.533-37.661l286.72-180.907c4.551-2.845 9.557-4.21 14.563-4.21h0.91c5.006 0 10.013 1.365 14.563 4.21l286.72 180.907c12.743 8.078 16.611 24.917 8.533 37.661-8.306 12.857-25.145 16.611-37.888 8.533z"  horiz-adv-x="1024" />

    
    <glyph glyph-name="jigou" unicode="&#58900;" d="M885.4 14.1h11.4c17.2 0 31.2-14 31.2-31.2s-14-31.2-31.2-31.2H127.2c-8.3 0-16.2 3.3-22.1 9.1-5.9 5.9-9.1 13.8-9.1 22.1 0 17.2 14 31.2 31.2 31.2h10.9V743.5c0 19.3 7.7 37.8 21.3 51.5 13.7 13.7 32.2 21.3 51.5 21.3h425.9c19.3 0 37.8-7.7 51.5-21.3 13.7-13.7 21.3-32.2 21.3-51.5V577h103c40.2 0 72.8-32.6 72.8-72.8v-490.1z m-62.4 0V504.2c0 5.7-4.7 10.4-10.4 10.4h-103v-500.5H823z m-622.5 0h446.7V743.5c0 2.8-1.1 5.4-3 7.4s-4.6 3.1-7.4 3.1H210.9c-2.8 0-5.4-1.1-7.4-3.1-1.9-2-3-4.6-3-7.4v-729.4z m148.1 384.4c-11.2-0.1-21.6 5.8-27.3 15.5-5.6 9.7-5.6 21.7 0 31.4s16.1 15.6 27.3 15.5h159.7c17.1-0.2 30.9-14.1 30.9-31.2s-13.8-31-30.9-31.2H348.6z m0-228.8c-17.1 0.2-30.9 14.1-30.9 31.2s13.8 31 30.9 31.2h159.7c11.2 0.1 21.6-5.8 27.3-15.5 5.6-9.7 5.6-21.7 0-31.4s-16.1-15.6-27.3-15.5H348.6z"  horiz-adv-x="1024" />

    
    <glyph glyph-name="dizhi" unicode="&#58936;" d="M512.767-128H512c-17.753 0-34.959 7.342-47.233 20.274-9.644 10.082-97.315 102.685-184.438 219.836-117.59 158.246-177.206 284.383-177.206 375.013C103.123 712.548 286.575 896 512 896s408.877-183.452 408.877-408.877c0-54.794-21.041-121.863-62.685-199.452-40.11-74.74-100.384-161.644-179.178-258.192l-0.658-0.767-117.26-134.356C548.603-119.89 531.068-128 512.767-128zM512 834.411c-191.562 0-347.288-155.836-347.288-347.288 0-75.945 57.096-192.986 165.151-338.301 86.356-116.164 175.78-210.192 179.616-214.137 0.658-0.767 1.644-1.096 2.63-1.096h0.768c0.219 0 1.096 0.329 1.972 1.315l116.932 133.918c76.164 93.37 134.137 176.767 172.274 248 36.603 68.383 55.233 125.808 55.233 170.301 0 191.562-155.726 347.288-347.288 347.288z m0-538.74c-105.534 0-191.452 85.808-191.452 191.452 0 105.535 85.808 191.452 191.452 191.452s191.452-85.808 191.452-191.452c0-105.534-85.918-191.452-191.452-191.452z m0 321.315c-71.562 0-129.863-58.301-129.863-129.863S440.438 357.26 512 357.26s129.863 58.302 129.863 129.863S583.562 616.986 512 616.986z"  horiz-adv-x="1024" />

    
    <glyph glyph-name="zhuangtai" unicode="&#58937;" d="M831.1 0.2V216.4c0 48.5-27.4 92.7-70.7 114.4l-106 53 106 53c43.3 21.7 70.7 65.9 70.7 114.4V767.4c35.3 0 63.9 28.6 63.9 63.9C895 866.7 866.4 895.2 831.1 895.2H191.8c-35.3 0-63.9-28.6-63.9-63.9s28.6-63.9 63.9-63.9v-216.2c0-48.5 27.4-92.7 70.7-114.4l106-53-106-53c-43.3-21.7-70.7-65.9-70.7-114.4v-216.2c-35.3 0-63.9-28.6-63.9-63.9 0-35.4 28.6-63.9 63.9-63.9h639.3c35.3 0 63.9 28.6 63.9 63.9 0.1 35.4-28.6 63.9-63.9 63.9M703.3 703.4H319.7v63.9h383.6v-63.9zM319.7 575.6h383.6v-24.4l-191.8-95.9-191.8 95.9v24.4z m0-575.4V216.4l191.8 95.9 191.8-95.9v-216.2H319.7z"  horiz-adv-x="1024" />

    
    <glyph glyph-name="Highest" unicode="&#58889;" d="M871.7 458.3c8.7 0 15.7-7 15.7-15.6v-240.9c0-8.6-7-15.5-15.7-15.5s-15.7 6.9-15.7 15.5v241c0 8.6 7 15.5 15.7 15.5z m12.1 70.9L714 434.9l70-232.3L511 61 238.1 202.60000000000002l69.5 230.7L135 529.2c-5 2.8-8 7.9-8 13.6 0 5.6 3.1 10.8 8 13.6l353.3 196.1c10.1 5.7 32 5.7 42.3 0l353.2-196.1c5-2.8 8-8 8-13.6 0.1-5.7-3-10.8-8-13.6zM681.5 408.4l-68.7-29.7-82.3-45.7c-5.1-2.8-13-4.6-21.1-4.6-8.1 0-16 1.7-21.1 4.6l-84.2 46.7-61.8 26.9-60.6-191L511 97.79999999999995l230.2 117.9-59.7 192.7zM503.2 719L174.8 542.8l328.9-173.9c0.2 0 2.5-0.5 5.7-0.5 3.4 0 5.7 0.6 6.3 0.8L844 542.8 515.2 719.3c-0.1 0-2.4 0.6-5.7 0.6-3.5 0-5.7-0.7-6.3-0.9z"  horiz-adv-x="1024" />

    
    <glyph glyph-name="bangong" unicode="&#59030;" d="M696.874667 664.234667H853.333333a106.666667 106.666667 0 0 0 106.666667-106.666667v-512a106.666667 106.666667 0 0 0-106.666667-106.666667h-422.4a21.333333 21.333333 0 1 0 0 42.666667H853.333333a64 64 0 0 1 64 64V298.666667c-17.834667-13.397333-39.978667-21.333333-64-21.333334h-192a85.333333 85.333333 0 0 0-85.333333-85.333333h-128a85.333333 85.333333 0 0 0-85.333333 85.333333H170.666667a106.197333 106.197333 0 0 0-64 21.333334v-253.098667a64 64 0 0 1 64-64h64.042666a21.333333 21.333333 0 1 0 0-42.666667H170.666667a106.666667 106.666667 0 0 0-106.666667 106.666667v512a106.666667 106.666667 0 0 0 106.666667 106.666667h146.858666a192.042667 192.042667 0 0 0 379.349334 0z m-43.349334 0a149.376 149.376 0 0 1-292.650666 0h292.650666zM618.666667 277.333333h-213.333334a42.666667 42.666667 0 0 1 42.666667-42.666666h128a42.666667 42.666667 0 0 1 42.666667 42.666666zM170.666667 618.666667A64 64 0 0 1 106.666667 554.666667v-170.666667A64 64 0 0 1 170.666667 320h682.666666a64 64 0 0 1 64 64V554.666667A64 64 0 0 1 853.333333 618.666667H170.666667z"  horiz-adv-x="1024" />

    
    <glyph glyph-name="weibiaoti" unicode="&#58626;" d="M772.654545-4.654544999999985l-13.963636 4.654545C165.236364 181.52727300000004 128 630.6909089999999 125.672727 635.345455V663.272727l155.927273 116.363637 160.581818-209.454546-81.454545-90.763636c27.927273-95.418182 174.545455-200.145455 242.036363-242.036364l109.381819 74.472727 190.836363-169.890909-130.327273-146.618181zM172.218182 637.672727c2.327273-25.6 44.218182-416.581818 586.472727-588.8l83.781818 88.436364-128 114.036364-104.727272-69.818182-11.636364 6.981818c-9.309091 6.981818-249.018182 146.618182-279.272727 290.909091l-2.327273 11.636363 72.145454 79.127273L279.272727 712.145455l-107.054545-74.472728z"  horiz-adv-x="1024" />

    
    <glyph glyph-name="hangye" unicode="&#58974;" d="M41.9-126.2c-23.1 0-41.9 18.7-41.9 41.9 0 23.1 18.7 41.9 41.9 41.9h937.9c23.1 0 41.9-18.7 41.9-41.9 0-23.1-18.7-41.9-41.9-41.9H41.9zM108.9 895.4h803.9c60.1 0 108.9-48.8 108.9-108.9v-669.9c0-60.1-48.8-108.9-108.9-108.9H108.9c-28.9 0-56.6 11.5-77 31.9C11.5 60.1 0 87.8 0 116.6v670C0 846.6 48.8 895.4 108.9 895.4z m0-83.7c-6.7 0-13.1-2.6-17.8-7.4-4.7-4.7-7.4-11.1-7.4-17.8v-669.9c0-13.9 11.3-25.1 25.1-25.1h803.9c6.7 0 13.1 2.6 17.8 7.4 4.7 4.7 7.4 11.1 7.4 17.8V786.6c0 13.9-11.3 25.1-25.1 25.1H108.9z m100.4-586.2c-9-12-23.7-18.2-38.5-16.4-14.8 1.8-27.6 11.4-33.5 25.1-5.9 13.8-4 29.6 5 41.6L309.8 499c31.5 42.1 88.7 55.6 135.7 32.1l167.9-84c10.9-5.4 24.1-2.3 31.4 7.4l167.4 223.4c13.9 18.5 40.1 22.2 58.6 8.4 18.5-13.9 22.2-40.1 8.4-58.6L711.8 404.2c-31.5-42.1-88.7-55.6-135.7-32.1l-168 84c-10.9 5.4-24.1 2.3-31.4-7.4L209.3 225.5z m0 0"  horiz-adv-x="1024" />

    
    <glyph glyph-name="toudi" unicode="&#58896;" d="M665.514667 857.002667A133.888 133.888 0 0 1 592.512 894.72L215.765333 896c-73.386667 0-104.149333-30.336-104.149333-104.405333v-779.264C116.394667-57.6 145.322667-85.333333 215.765333-85.333333h602.112c73.6 0 104.362667 30.336 104.362667 104.362666V564.608l-1.194667 3.669333a131.285333 131.285333 0 0 1-36.608 68.693334L665.514667 857.002667z m10.325333-253.226667a46.762667 46.762667 0 0 0-46.421333 46.976v146.773333l192.213333-193.749333H675.84z m130.816-605.824l-563.712-2.389333c-24.746667 0.298667-45.482667 17.408-45.653333 42.709333L194.218667 766.421333c0.213333 25.002667 20.352 45.952 45.098666 45.952l298.624-4.010666v-158.421334c0-101.973333 58.538667-139.221333 133.077334-139.221333l165.973333 1.322667 4.224-469.504c0-16.810667-11.52-31.701333-34.56-44.586667zM750.506667 213.333333H326.613333c-24.661333 0-44.373333-7.082667-44.373333-42.666666 0-35.285333 19.669333-42.666667 44.373333-42.666667h423.893334c23.893333 0 43.776 7.338667 43.776 42.624 0.085333 35.626667-19.797333 42.709333-43.776 42.709333zM317.696 384c-19.072 0-35.328-7.893333-35.328-42.666667 0-35.626667 16.256-42.666667 35.328-42.666666h335.274667c19.285333 0 34.944 7.04 34.944 42.666666 0 34.773333-15.658667 42.666667-35.029334 42.666667H317.696z"  horiz-adv-x="1024" />

    
    <glyph glyph-name="icon-test" unicode="&#58905;" d="M151.552 676.864v-327.68h389.12v368.64h-348.16c-34.816 0-40.96-40.96-40.96-40.96z m634.88 40.96c-57.344 0-102.4-45.056-102.4-102.4v-225.28c0-22.528 18.432-40.96 40.96-40.96h122.88c22.528 0 40.96 18.432 40.96 40.96v225.28c0 55.296-45.056 102.4-102.4 102.4zM768 824.32h-614.4c-57.344 0-102.4-45.056-102.4-102.4v-430.08c0-22.528 18.432-40.96 40.96-40.96h389.12V-66.56c0-16.384 14.336-30.72 30.72-30.72s30.72 14.336 30.72 30.72V250.88h389.12c22.528 0 40.96 18.432 40.96 40.96v327.68c0 112.64-92.16 204.8-204.8 204.8z m-184.32-163.84v-348.16h-471.04v389.12s12.288 61.44 61.44 61.44h471.04s-61.44-36.864-61.44-102.4z m348.16-307.2c0-22.528-18.432-40.96-40.96-40.96h-204.8c-22.528 0-40.96 18.432-40.96 40.96v266.24c0 79.872 63.488 143.36 143.36 143.36s143.36-63.488 143.36-143.36v-266.24zM434.176 572.416c-45.056 43.008-126.976 116.736-174.08 106.496s-16.384-49.152 2.048-63.488c36.864-26.624 45.056-36.864 14.336-18.432 0 0-55.296 10.24-40.96-20.48 14.336-30.72 81.92-61.44 81.92-61.44s-88.064 24.576-81.92 0c6.144-24.576 81.92-61.44 81.92-61.44s-43.008 0-40.96-20.48c2.048-14.336 53.248-28.672 81.92-40.96 40.96-18.432 67.584-8.192 98.304 12.288 0 0 24.576 6.144 24.576 65.536-2.048 40.96-30.72 88.064-47.104 102.4z"  horiz-adv-x="1024" />

    
    <glyph glyph-name="jianli" unicode="&#59018;" d="M859.48416 1.7066666700000042H207.18250666c-36.0448 0-65.24472889 29.19992889-65.24472888 65.24472888V719.25304889C141.93777778 755.2978488900001 171.13770666 784.49777778 207.18250666 784.49777778h521.84860445l195.69777777-195.69777778v-521.84860445c0-36.0448-29.19992889-65.24472889-65.24472888-65.24472888z m-152.18915556 521.84860444a21.73610667 21.73610667 0 0 1-21.73610666 21.73610667H381.14417778a21.73610667 21.73610667 0 0 1-21.73610667-21.73610667v-21.73610666c0-12.01493333 9.72117333-21.73610667 21.73610667-21.73610667h304.41472c12.01493333 0 21.73610667 9.72117333 21.73610666 21.73610667v21.73610666z m0-152.18915556a21.73610667 21.73610667 0 0 1-21.73610666 21.73610667H381.14417778a21.73610667 21.73610667 0 0 1-21.73610667-21.73610667v-21.73610666c0-12.01493333 9.72117333-21.73610667 21.73610667-21.73610667h304.41472c12.01493333 0 21.73610667 9.72117333 21.73610666 21.73610667v21.73610666z m0-152.22556444a21.73610667 21.73610667 0 0 1-21.73610666 21.73610667H381.14417778a21.73610667 21.73610667 0 0 1-21.73610667-21.73610667v-21.73610666c0-12.01493333 9.72117333-21.73610667 21.73610667-21.73610667h304.41472c12.01493333 0 21.73610667 9.72117333 21.73610666 21.73610667v21.73610666zM729.03111111 784.49777778l195.69777777-195.69777778v-21.73610667h-108.71694222a108.71694222 108.71694222 0 0 0-108.71694222 108.71694222V784.49777778h21.73610667z"  horiz-adv-x="1024" />

    
    <glyph glyph-name="nvxing" unicode="&#58972;" d="M877.714286 896h-731.428572c-80.457143 0-146.285714-65.828571-146.285714-146.285714v-731.428572c0-80.457143 65.828571-146.285714 146.285714-146.285714h731.428572c80.457143 0 146.285714 65.828571 146.285714 146.285714v731.428572c0 80.457143-65.828571 146.285714-146.285714 146.285714z m-80.457143-676.571429c-98.742857-98.742857-259.657143-113.371429-373.028572-32.914285l-32.914285-29.257143 58.514285-58.514286-51.2-51.2-58.514285 58.514286-69.485715-62.171429-51.2 51.2 69.485715 65.828572-65.828572 65.828571 51.2 51.2 69.485715-69.485714 29.257142 25.6c-102.4 124.342857-84.114286 307.2 40.228572 409.6 124.342857 102.4 307.2 84.114286 409.6-40.228572 87.771429-109.714286 80.457143-277.942857-25.6-384zM738.742857 574.171429c-84.114286 84.114286-223.085714 84.114286-310.857143 0-84.114286-84.114286-84.114286-223.085714 0-310.857143 84.114286-84.114286 223.085714-84.114286 310.857143 0 84.114286 87.771429 84.114286 226.742857 0 310.857143z"  horiz-adv-x="1024" />

    
    <glyph glyph-name="nianling" unicode="&#58962;" d="M316.82820218-56.610620280000035H199.58796733c-67.81452889 0-123.00220742 55.14525911-123.00220743 122.8183899V693.88807659c0 67.75089974 55.18767854 122.81131999 123.00220743 122.81131999h622.43443744c67.78624927 0 122.98806763-55.08869986 122.98806764-122.81131999v-33.17199434a33.58911873 33.58911873 0 0 1 33.62446822-33.58911872 33.58204881 33.58204881 0 0 1 33.59618863 33.58911872v33.17199434c0 104.76185249-85.33375351 190.00369725-190.20165458 190.00369723h-622.43443743c-104.89618069 0-190.27235364-85.24184475-190.27235364-190.00369723v-627.68030697c0-104.72650298 85.37617294-190.01076717 190.27235364-190.01076716h117.24023482a33.61739834 33.61739834 0 0 1 33.64567798 33.59618863 33.63860805 33.63860805 0 0 1-33.65274787 33.59618863z m-131.2739963 627.45406999h-0.58680211a33.58204881 33.58204881 0 0 1-33.62446824-33.5537692 33.61739834 33.61739834 0 0 1 33.62446824-33.59618863h0.58680211a33.60325853 33.60325853 0 0 1 33.62446825 33.59618863 33.58204881 33.58204881 0 0 1-33.62446825 33.5537692z m112.82154422 0a33.60325853 33.60325853 0 0 1-33.64567796-33.5537692 33.61739834 33.61739834 0 0 1 33.64567796-33.59618863h189.49466408a33.59618863 33.59618863 0 0 1 33.61739835 33.59618863 33.59618863 33.59618863 0 0 1-33.61739835 33.5537692H298.3757501zM185.55420588 395.53101509h-0.58680211a33.60325853 33.60325853 0 0 1-33.62446824-33.59618863 33.61739834 33.61739834 0 0 1 33.62446824-33.56790902h0.58680211a33.60325853 33.60325853 0 0 1 33.62446825 33.56790902 33.60325853 33.60325853 0 0 1-33.62446825 33.59618863z m201.10344811 0H298.3757501a33.61739834 33.61739834 0 0 1-33.64567796-33.59618863 33.61739834 33.61739834 0 0 1 33.64567796-33.56790902H386.6505841a33.61739834 33.61739834 0 0 1 33.64567795 33.56790902 33.63153815 33.63153815 0 0 1-33.63860806 33.59618863z m545.59163984-214.88976291c-23.56399342 23.47915455-50.56396066 42.27803199-79.93941597 55.82396999 42.03765521 34.02745282 68.90329427 85.92762555 68.90329426 143.99275542 0 102.2237566-83.23399172 185.39411918-185.65570567 185.39411919-102.38636441 0-185.62742606-83.14208295-185.62742606-185.39411919 0-58.06512988 26.86563906-109.96530259 68.87501465-143.99275542a277.57861067 277.57861067 0 0 1-79.91113636-55.82396999c-52.52939425-52.47990492-81.46651548-122.22451788-81.46651548-196.44438072a33.61032844 33.61032844 0 0 1 33.61739834-33.56790901 33.62446826 33.62446826 0 0 1 33.65274787 33.56790901c0 116.15146947 94.6236087 210.64074998 210.93768598 210.64074998 116.28579767 0 210.88112676-94.48928051 210.88112678-210.64074998 0-18.52315114 15.09424721-33.567909 33.68102748-33.56790901a33.63153815 33.63153815 0 0 1 33.61739833 33.56790901c-0.09190877 74.21986284-29.02902999 143.9644758-81.56549415 196.44438072z m-196.7130371 81.60084367c-65.276433 0-118.40676917 53.01721771-118.40676917 118.22295165 0 65.19866403 53.13033618 118.20174193 118.40676917 118.20174192s118.41383907-53.0101478 118.41383908-118.20174192c0-65.20573393-53.13033618-118.22295164-118.41383908-118.22295165z"  horiz-adv-x="1024" />

    
    <glyph glyph-name="toudi1" unicode="&#58908;" d="M860.219007 675.310345c-5.450075 6.217691-13.970615 8.827586-21.953823 6.678261L174.200416 501.291754c-7.829685-2.149325-13.74033-8.443778-15.505847-16.350225-1.765517-7.906447 1.074663-16.11994 7.215592-21.33973l157.361319-133.104648 72.232684-202.036581c2.84018-7.906447 9.902249-13.510045 18.269265-14.354423l2.149326-0.153523c7.5994 0 14.661469 4.068366 18.576312 10.669865l43.523838 73.921439L603.221106 90.770615c5.21979-4.605697 12.435382-6.371214 19.190404-4.682459 6.755022 1.611994 12.358621 6.447976 14.891755 12.972714l226.600299 553.451274c3.223988 7.676162 1.765517 16.503748-3.684557 22.798201zM584.491271 443.25997L501.819007 332.8c-7.292354-9.595202-5.373313-23.335532 4.221889-30.551124 9.671964-6.908546 23.028486-4.989505 30.320839 4.29865l137.096252 183.153224c5.987406 8.05997 5.757121 19.190405-0.614093 26.943328-6.371214 7.676162-17.194603 10.055772-26.175712 5.757121L343.15274 373.09985c-0.614093-0.307046-1.151424-0.614093-1.688756-0.921139L225.553939 470.126537l581.622789 158.205697-198.428786-484.826387-122.050974 105.163418c-4.835982 4.145127-11.283958 5.910645-17.578411 4.912744-6.294453-1.074663-11.821289-4.835982-15.122039-10.362819L420.758737 186.7994l-53.426087 149.685158 217.158621 106.775412z m0 0"  horiz-adv-x="1024" />

    
    <glyph glyph-name="yaoqing1" unicode="&#58884;" d="M978.85 412.16a50.27 50.27 0 0 1-47.94 5.818L512 255.07 93.09 431.942a50.502 50.502 0 0 1-48.64-5.818A51.433 51.433 0 0 1 23.274 384v-392.378a51.665 51.665 0 0 1 51.432-51.898h874.59a51.665 51.665 0 0 1 51.432 51.898V369.804a52.13 52.13 0 0 1-21.876 42.356zM821.527 828.276H202.473A59.345 59.345 0 0 1 144.29 768v-290.91L512 321.165l367.71 142.894V768a59.345 59.345 0 0 1-58.183 60.276zM642.095 565.527a35.607 35.607 0 0 1-3.026-3.025L515.025 441.25a11.636 11.636 0 0 0-16.523 0L374.458 562.5l-2.094 3.026a94.487 94.487 0 0 0-23.273 85.644 89.135 89.135 0 0 0 65.629 68.422 86.342 86.342 0 0 0 93.09-37.004 86.807 86.807 0 0 0 93.092 37.004 89.135 89.135 0 0 0 65.629-68.422 95.185 95.185 0 0 0-23.273-85.644z"  horiz-adv-x="1024" />

    
    <glyph glyph-name="shoucang" unicode="&#58650;" d="M702.29866666 774.41529166c-72.47025 0-139.6395-36.444375-184.2795-96.429375-44.15175 59.985-111.80925 96.429375-184.2795 96.429375-130.537125 0-236.592-116.13375-236.592-258.633 0-84.9555 37.909125-144.9405 68.634-192.9285 88.756875-139.6395 312.41025-312.863625 322.000875-320.08275a48.371625 48.371625 0 0 1 60.438375 0c9.6255 7.219125 232.75575 180.9315 322.03575 320.08275 30.69 47.988 68.599125 107.973 68.599125 192.9285 0 142.534125-106.02 258.633-236.557125 258.633z m106.9965-450.131625c-82.060875-115.15725-255.77325-246.636-264.42225-252.878625-8.16075-6.242625-17.751375-9.590625-26.85375-9.590625-9.590625 0-18.727875 2.85975-26.85375 9.590625-8.683875 6.242625-179.013375 139.15125-264.457125 257.691375-27.342 43.17525-71.0055 96.9525-71.0055 172.77075 0 127.6425 71.0055 217.375875 187.6275 217.375875 64.79775 0 135.315-61.903125 174.688875-115.6455 39.82725 53.7075 109.85625 115.6455 174.654 115.6455 117.11025 0 192.9285-89.733375 192.9285-217.375875 0-75.81825-48.47625-134.861625-76.3065-177.5835z"  horiz-adv-x="1024" />

    
    <glyph glyph-name="more" unicode="&#58625;" d="M320 384L192 384c-70.4 0-128-57.6-128-128l0-128c0-70.4 57.6-128 128-128l128 0c70.4 0 128 57.6 128 128l0 128C448 326.4 390.4 384 320 384zM384 128c0-35.2-28.8-64-64-64L192 64c-35.2 0-64 28.8-64 64l0 128c0 35.2 28.8 64 64 64l128 0c35.2 0 64-28.8 64-64L384 128zM768 832l-128 0C569.6 832 512 774.4 512 704l0-128c0-70.4 57.6-128 128-128l128 0c70.4 0 128 57.6 128 128L896 704C896 774.4 838.4 832 768 832zM832 576c0-35.2-28.8-64-64-64l-128 0C604.8 512 576 540.8 576 576L576 704c0 35.2 28.8 64 64 64l128 0c35.2 0 64-28.8 64-64L832 576zM768 384l-128 0c-70.4 0-128-57.6-128-128l0-128c0-70.4 57.6-128 128-128l128 0c70.4 0 128 57.6 128 128l0 128C896 326.4 838.4 384 768 384zM832 128c0-35.2-28.8-64-64-64l-128 0c-35.2 0-64 28.8-64 64l0 128c0 35.2 28.8 64 64 64l128 0c35.2 0 64-28.8 64-64L832 128zM320 832L192 832C121.6 832 64 774.4 64 704l0-128c0-70.4 57.6-128 128-128l128 0c70.4 0 128 57.6 128 128L448 704C448 774.4 390.4 832 320 832zM384 576c0-35.2-28.8-64-64-64L192 512C156.8 512 128 540.8 128 576L128 704c0 35.2 28.8 64 64 64l128 0c35.2 0 64-28.8 64-64L384 576z"  horiz-adv-x="1024" />

    
    <glyph glyph-name="yonghu" unicode="&#58932;" d="M843.283 25.884c-8.439 140.516-104.296 257.423-233.908 297.15C687.88 359.727 742.4 439.467 742.4 531.911c0 127.242-103.159 230.4-230.4 230.4s-230.4-103.158-230.4-230.4c0-92.444 54.519-172.184 133.12-208.877-129.612-39.727-225.47-156.634-233.908-297.15-0.664-10.903 7.964-20.195 18.963-20.195 9.955 0 18.3 7.775 18.963 17.73C227.745 177.493 355.65 299.615 512 299.615s284.255-122.122 293.357-276.196c0.569-9.955 8.913-17.73 18.963-17.73 10.999 0 19.627 9.292 18.963 20.195zM319.526 531.911c0 106.288 86.187 192.474 192.474 192.474S704.474 638.2 704.474 531.911c0-106.287-86.187-192.474-192.474-192.474s-192.474 86.187-192.474 192.474z"  horiz-adv-x="1024" />

    
    <glyph glyph-name="nianling-" unicode="&#58909;" d="M511.638588 432.670118a216.244706 216.244706 0 0 1 216.244706 216.274823 216.425412 216.425412 0 0 1-216.244706 216.395294A216.425412 216.425412 0 0 1 295.243294 649.035294v-0.12047a216.425412 216.425412 0 0 1 216.395294-216.244706zM146.733176 287.051294c-42.676706-108.032-85.835294-414.358588-85.835294-414.358588h367.435294l-110.471529 505.97647c-66.529882 0-128.421647 16.414118-171.128471-91.617882z m364.905412 91.617882l-104.267294-145.618823 82.070588-360.357647h44.363294l82.070589 360.357647-104.237177 145.618823z m364.875294-91.617882c-42.706824 108.032-104.568471 91.617882-171.12847 91.617882l-110.47153-505.97647h367.435294s-43.128471 306.326588-85.835294 414.358588z m-35.358117-187.090823h-128.90353v28.702117h128.90353v-28.702117z"  horiz-adv-x="1024" />

    
    <glyph glyph-name="weixin" unicode="&#58634;" d="M922.96760889 83.62211554999999c45.27900445 41.37756445 72.75633778 95.73717333 72.75633778 155.26912 0 103.60832-83.21365333 191.52782222-198.66396445 222.66993778-6.88583111 166.01884445-175.87655111 298.90673778-383.37080889 298.90673778-211.8656 0-383.61656889-138.54037333-383.61656888-309.43914666 0-78.47708445 36.21888-150.13319111 95.90670222-204.68053334 18.67889778-17.07008-3.19032889-63.78268445-30.05667556-102.37383111 45.40416 12.54058667 93.83367111 20.70300445 136.22840889 20.70300445 19.84853333 0 38.37838222-1.792 54.64746667-5.75943112 39.71754667-11.22417778 82.41720889-17.32949333 126.88839111-17.32949333 8.63687111 0 17.2032 0.256 25.70126222 0.70997333 45.65333333-81.46375111 147.27850667-138.15352889 265.31953778-138.15352888 33.73511111 0 66.13105778 4.62961778 96.25941333 13.14816 12.34261333 3.01056 26.39530667 4.36906667 41.45493334 4.36906666 32.15928889 0 68.89927111-6.19292445 103.34435555-15.70588444-20.3776 29.27502222-36.96867555 64.70656-22.79765333 77.65902222zM413.69031111 198.11328000000003c-38.31466667 0-75.83402667 5.11317333-111.51473778 15.19957333l-0.98531555 0.27761778-0.99441778 0.24348444c-20.04536889 4.89130667-42.93745778 7.37052445-68.04024889 7.37052445-14.42816 0-28.83925333-0.79530667-42.93063111-2.14812445 2.99121778 33.11957333-9.69841778 54.92849778-25.11189333 69.01646223-24.89571555 22.74986667-44.23338667 48.32938667-57.47484445 76.02403555-13.29720889 27.81411555-20.04309333 57.06296889-20.04309333 86.93191112 0 65.22652445 32.43349333 127.30823111 91.32373333 174.81386666 30.07032889 24.25400889 65.29820445 43.36867555 104.70172445 56.81379556 41.40487111 14.12778667 85.504 21.28896 131.07086222 21.28896s89.66485333-7.16231111 131.07086222-21.28896c39.40465778-13.44284445 74.63139555-32.55978667 104.70172444-56.81379556 52.55736889-42.39587555 84.0192-96.40618667 90.18140445-153.89582222 0.00113778 0 0.00113778 0 0.00227555 0-11.45628445 1.10478222-23.11281778 1.69073778-34.93888 1.69073778-160.72590222 0-291.01738667-105.09767111-291.01738666-234.74744889 0-13.89226667 1.50869333-27.50464 4.37703111-40.73585778-0.00113778 0.00227555-0.00113778 0.00227555-0.00113778 0.00455111-1.46204445-0.01592889-2.9184-0.04664889-4.37703111-0.04664889zM884.83384889 125.33987554999999c-9.13521778-8.35128889-21.18200889-23.69422222-23.37109334-47.70929777-6.31125333 0.3584-12.67484445 0.55637333-19.04298666 0.55637333-20.13297778 0-38.58659555-2.01272889-54.84885334-5.98129778l-0.99441777-0.24348444-0.98645333-0.27534222c-25.86282667-7.31249778-53.07278222-11.01710222-80.88348445-11.01710222-33.06382222 0-65.03765333 5.18940445-95.0272 15.41802666-28.37731555 9.68248889-53.70311111 23.41091555-75.26741333 40.8064-41.40145778 33.39719111-64.20366222 76.72149333-64.20366222 121.99480889 0 45.27786667 22.80220445 88.60330667 64.20366222 121.99936 21.56657778 17.39662222 46.88896 31.12391111 75.26741333 40.8064 29.98954667 10.23203555 61.96337778 15.41916445 95.0272 15.41916445s65.03651555-5.18940445 95.02606222-15.41916445c28.37845333-9.68476445 53.70424889-23.41091555 75.26855111-40.8064 41.40145778-33.39491555 64.20252445-76.72035555 64.20252445-121.99936 0-20.60743111-4.66602667-40.81550222-13.86951111-60.06215111-9.28654222-19.42072889-22.91256889-37.41809778-40.50033778-53.48807111zM245.34926222 511.52213333c0.3072 32.62122667 20.71893333 58.91072 45.85699556 58.91072 25.32693333 0 45.85927111-26.69226667 45.85927111-59.61728 0-32.92728889-20.5312-59.61728-45.85927111-59.61728-25.13806222 0-45.54865778 26.29063111-45.85472 58.87317334zM483.8912 511.52213333c0.3072 32.62122667 20.71893333 58.91072 45.85472 58.91072 25.32579555 0 45.85813333-26.69226667 45.85813333-59.61728 0-32.92728889-20.5312-59.61728-45.85813333-59.61728-25.13578667 0-45.54752 26.29063111-45.85358222 58.87317334zM589.61692445 282.51591111000005c0.3072 25.06979555 16.01308445 45.24145778 35.34051555 45.24145778 19.51971555 0 35.34506667-20.57102222 35.34506667-45.94801778 0-25.37699555-15.82421333-45.94801778-35.34506667-45.94801778-19.32856889 0-35.03331555 20.17166222-35.34051555 45.20391112zM759.89219555 282.51591111000005c0.3072 25.06979555 16.01308445 45.24145778 35.34165334 45.24145778 19.51971555 0 35.34734222-20.57102222 35.34734222-45.94801778 0-25.37699555-15.82535111-45.94801778-35.34734222-45.94801778-19.32970667 0-35.03672889 20.17166222-35.34165334 45.20391112z"  horiz-adv-x="1024" />

    


  </font>
</defs>
</svg>
